%TF.GenerationSoftware,KiCad,Pcbnew,10.0.5*%
%TF.CreationDate,2026-09-21T22:39:23+05:30*%
%TF.ProjectId,USB-UART Converter,5553422d-5541-4525-9420-436f6e766572,rev?*%
%TF.SameCoordinates,Original*%
%TF.FileFunction,Copper,L2,Bot*%
%TF.FilePolarity,Positive*%
%FSLAX46Y46*%
G04 Gerber Fmt 4.6, Leading zero omitted, Abs format (unit mm)*
G04 Created by KiCad (PCBNEW 10.0.5) date 2026-09-21 22:39:23*
%MOMM*%
%LPD*%
G01*
G04 APERTURE LIST*
G04 Aperture macros list*
%AMRoundRect*
0 Rectangle with rounded corners*
0 $1 Rounding radius*
0 $2 $3 $4 $5 $6 $7 $8 $9 X,Y pos of 4 corners*
0 Add a 4 corners polygon primitive as box body*
4,1,4,$2,$3,$4,$5,$6,$7,$8,$9,$2,$3,0*
0 Add four circle primitives for the rounded corners*
1,1,$1+$1,$2,$3*
1,1,$1+$1,$4,$5*
1,1,$1+$1,$6,$7*
1,1,$1+$1,$8,$9*
0 Add four rect primitives between the rounded corners*
20,1,$1+$1,$2,$3,$4,$5,0*
20,1,$1+$1,$4,$5,$6,$7,0*
20,1,$1+$1,$6,$7,$8,$9,0*
20,1,$1+$1,$8,$9,$2,$3,0*%
G04 Aperture macros list end*
%TA.AperFunction,ComponentPad*%
%ADD10R,1.700000X1.700000*%
%TD*%
%TA.AperFunction,ComponentPad*%
%ADD11C,1.700000*%
%TD*%
%TA.AperFunction,ComponentPad*%
%ADD12O,2.100000X1.000000*%
%TD*%
%TA.AperFunction,ComponentPad*%
%ADD13O,1.600000X1.000000*%
%TD*%
%TA.AperFunction,ComponentPad*%
%ADD14RoundRect,0.250000X0.550000X-0.550000X0.550000X0.550000X-0.550000X0.550000X-0.550000X-0.550000X0*%
%TD*%
%TA.AperFunction,ComponentPad*%
%ADD15C,1.600000*%
%TD*%
%TA.AperFunction,ViaPad*%
%ADD16C,0.600000*%
%TD*%
%TA.AperFunction,Conductor*%
%ADD17C,0.300000*%
%TD*%
%TA.AperFunction,Conductor*%
%ADD18C,0.200000*%
%TD*%
G04 APERTURE END LIST*
D10*
%TO.P,J2,1,Pin_1_1*%
%TO.N,GND*%
X151115000Y-89920000D03*
D11*
%TO.P,J2,2,Pin_2_2*%
%TO.N,/VBUS*%
X151115000Y-92460000D03*
%TO.P,J2,3,Pin_3_3*%
%TO.N,/RX*%
X151115000Y-95000000D03*
%TO.P,J2,4,Pin_4_4*%
%TO.N,/TX*%
X151115000Y-97540000D03*
%TO.P,J2,5,Pin_5_5*%
%TO.N,/RST*%
X151115000Y-100080000D03*
%TD*%
D12*
%TO.P,J1,SH,SHIELD_SH*%
%TO.N,GND*%
X113130000Y-91680000D03*
D13*
X108950000Y-91680000D03*
D12*
X113130000Y-100320000D03*
D13*
X108950000Y-100320000D03*
%TD*%
D14*
%TO.P,D8,1,K_1*%
%TO.N,GND*%
X122000000Y-102810000D03*
D15*
%TO.P,D8,2,A_2*%
%TO.N,/VBUS*%
X122000000Y-95190000D03*
%TD*%
D14*
%TO.P,D7,1,K_1*%
%TO.N,GND*%
X131500000Y-102810000D03*
D15*
%TO.P,D7,2,A_2*%
%TO.N,/<NO NET>*%
X131500000Y-95190000D03*
%TD*%
D14*
%TO.P,D6,1,K_1*%
%TO.N,GND*%
X127000000Y-102810000D03*
D15*
%TO.P,D6,2,A_2*%
%TO.N,/D+*%
X127000000Y-95190000D03*
%TD*%
D16*
%TO.N,GND*%
X134000000Y-92000000D03*
%TO.N,Net-(D2-K)*%
X140050000Y-92370000D03*
X142000000Y-94000000D03*
%TO.N,/VBUS*%
X128000000Y-92275000D03*
X125000000Y-92275000D03*
%TO.N,GND*%
X111000000Y-98000000D03*
X138000000Y-95500000D03*
%TO.N,/VBUS*%
X116000000Y-98000000D03*
X114045000Y-93550000D03*
X135550000Y-97125000D03*
X144350000Y-93000000D03*
%TO.N,Net-(D1-K)*%
X145000000Y-98000000D03*
X142590000Y-91017958D03*
%TO.N,Net-(D2-K)*%
X141000000Y-101000000D03*
X142590000Y-95017958D03*
%TO.N,/D+*%
X116000000Y-97000000D03*
%TO.N,/RX*%
X147000000Y-98000000D03*
%TD*%
%TO.N,GND*%
D17*
X137000000Y-95000000D02*
X134000000Y-92000000D01*
X137000000Y-97310000D02*
X137000000Y-95000000D01*
X131500000Y-102810000D02*
X137000000Y-97310000D01*
%TO.N,Net-(D2-K)*%
D18*
X140370000Y-92370000D02*
X142000000Y-94000000D01*
X140050000Y-92370000D02*
X140370000Y-92370000D01*
%TO.N,/VBUS*%
D17*
X130700000Y-92275000D02*
X135550000Y-97125000D01*
X128000000Y-92275000D02*
X130700000Y-92275000D01*
X127275000Y-93000000D02*
X128000000Y-92275000D01*
X126000000Y-93000000D02*
X127275000Y-93000000D01*
X125275000Y-92275000D02*
X126000000Y-93000000D01*
X125000000Y-92275000D02*
X125275000Y-92275000D01*
X124915000Y-92275000D02*
X125000000Y-92275000D01*
X122000000Y-95190000D02*
X124915000Y-92275000D01*
%TO.N,GND*%
X113130000Y-91680000D02*
X108950000Y-91680000D01*
X111000000Y-93460000D02*
X112780000Y-91680000D01*
X151115000Y-89920000D02*
X140372894Y-89920000D01*
X111000000Y-98000000D02*
X111000000Y-93460000D01*
X112780000Y-91680000D02*
X113130000Y-91680000D01*
X137500000Y-95000000D02*
X138000000Y-95500000D01*
X137500000Y-93000000D02*
X137500000Y-95000000D01*
X127000000Y-102810000D02*
X131500000Y-102810000D01*
X140372894Y-89920000D02*
X137500000Y-92792894D01*
X137500000Y-92792894D02*
X137500000Y-93000000D01*
X113130000Y-100320000D02*
X108950000Y-100320000D01*
%TO.N,/VBUS*%
X116000000Y-98000000D02*
X115000000Y-97000000D01*
X115000000Y-94505000D02*
X114045000Y-93550000D01*
X115685000Y-95190000D02*
X114045000Y-93550000D01*
X144890000Y-92460000D02*
X151115000Y-92460000D01*
X144350000Y-93000000D02*
X144890000Y-92460000D01*
X122000000Y-95190000D02*
X115685000Y-95190000D01*
X115000000Y-97000000D02*
X115000000Y-94505000D01*
%TO.N,Net-(D1-K)*%
X143700000Y-92127958D02*
X142590000Y-91017958D01*
X143700000Y-96700000D02*
X143700000Y-92127958D01*
X145000000Y-98000000D02*
X143700000Y-96700000D01*
%TO.N,Net-(D2-K)*%
X141000000Y-101000000D02*
X142590000Y-99410000D01*
X142590000Y-99410000D02*
X142590000Y-95017958D01*
%TO.N,/D+*%
X125190000Y-97000000D02*
X116000000Y-97000000D01*
X127000000Y-95190000D02*
X125190000Y-97000000D01*
%TO.N,/RX*%
X148115000Y-98000000D02*
X151115000Y-95000000D01*
X147000000Y-98000000D02*
X148115000Y-98000000D01*
%TD*%
%TA.AperFunction,Conductor*%
%TO.N,GND*%
G36*
X113380000Y-92680000D02*
G01*
X113497411Y-92680000D01*
X113564450Y-92699685D01*
X113610205Y-92752489D01*
X113620149Y-92821647D01*
X113591124Y-92885203D01*
X113566302Y-92907102D01*
X113534711Y-92928210D01*
X113534707Y-92928213D01*
X113423213Y-93039707D01*
X113423208Y-93039714D01*
X113399493Y-93075205D01*
X113345880Y-93120010D01*
X113276555Y-93128716D01*
X113213528Y-93098560D01*
X113176810Y-93039117D01*
X113176617Y-93038406D01*
X113175500Y-93034237D01*
X113175500Y-93034234D01*
X113136281Y-92887865D01*
X113060515Y-92756635D01*
X112953365Y-92649485D01*
X112941998Y-92642922D01*
X112893783Y-92592354D01*
X112880000Y-92535536D01*
X112880000Y-91980000D01*
X113380000Y-91980000D01*
X113380000Y-92680000D01*
G37*
%TD.AperFunction*%
%TA.AperFunction,Conductor*%
G36*
X155442539Y-87520185D02*
G01*
X155488294Y-87572989D01*
X155499500Y-87624500D01*
X155499500Y-107375500D01*
X155479815Y-107442539D01*
X155427011Y-107488294D01*
X155375500Y-107499500D01*
X105624500Y-107499500D01*
X105557461Y-107479815D01*
X105511706Y-107427011D01*
X105500500Y-107375500D01*
X105500500Y-102210013D01*
X120700000Y-102210013D01*
X120700000Y-102560000D01*
X121684314Y-102560000D01*
X121679920Y-102564394D01*
X121627259Y-102655606D01*
X121600000Y-102757339D01*
X121600000Y-102862661D01*
X121627259Y-102964394D01*
X121679920Y-103055606D01*
X121684314Y-103060000D01*
X120700001Y-103060000D01*
X120700001Y-103409986D01*
X120710494Y-103512697D01*
X120765641Y-103679119D01*
X120765643Y-103679124D01*
X120857684Y-103828345D01*
X120981654Y-103952315D01*
X121130875Y-104044356D01*
X121130880Y-104044358D01*
X121297302Y-104099505D01*
X121297309Y-104099506D01*
X121400019Y-104109999D01*
X121749999Y-104109999D01*
X121750000Y-104109998D01*
X121750000Y-103125686D01*
X121754394Y-103130080D01*
X121845606Y-103182741D01*
X121947339Y-103210000D01*
X122052661Y-103210000D01*
X122154394Y-103182741D01*
X122245606Y-103130080D01*
X122250000Y-103125686D01*
X122250000Y-104109999D01*
X122599972Y-104109999D01*
X122599986Y-104109998D01*
X122702697Y-104099505D01*
X122869119Y-104044358D01*
X122869124Y-104044356D01*
X123018345Y-103952315D01*
X123142315Y-103828345D01*
X123234356Y-103679124D01*
X123234358Y-103679119D01*
X123289505Y-103512697D01*
X123289506Y-103512690D01*
X123299999Y-103409986D01*
X123300000Y-103409973D01*
X123300000Y-103060000D01*
X122315686Y-103060000D01*
X122320080Y-103055606D01*
X122372741Y-102964394D01*
X122400000Y-102862661D01*
X122400000Y-102757339D01*
X122372741Y-102655606D01*
X122320080Y-102564394D01*
X122315686Y-102560000D01*
X123299999Y-102560000D01*
X123299999Y-102210029D01*
X123299998Y-102210013D01*
X125700000Y-102210013D01*
X125700000Y-102560000D01*
X126684314Y-102560000D01*
X126679920Y-102564394D01*
X126627259Y-102655606D01*
X126600000Y-102757339D01*
X126600000Y-102862661D01*
X126627259Y-102964394D01*
X126679920Y-103055606D01*
X126684314Y-103060000D01*
X125700001Y-103060000D01*
X125700001Y-103409986D01*
X125710494Y-103512697D01*
X125765641Y-103679119D01*
X125765643Y-103679124D01*
X125857684Y-103828345D01*
X125981654Y-103952315D01*
X126130875Y-104044356D01*
X126130880Y-104044358D01*
X126297302Y-104099505D01*
X126297309Y-104099506D01*
X126400019Y-104109999D01*
X126749999Y-104109999D01*
X126750000Y-104109998D01*
X126750000Y-103125686D01*
X126754394Y-103130080D01*
X126845606Y-103182741D01*
X126947339Y-103210000D01*
X127052661Y-103210000D01*
X127154394Y-103182741D01*
X127245606Y-103130080D01*
X127250000Y-103125686D01*
X127250000Y-104109999D01*
X127599972Y-104109999D01*
X127599986Y-104109998D01*
X127702697Y-104099505D01*
X127869119Y-104044358D01*
X127869124Y-104044356D01*
X128018345Y-103952315D01*
X128142315Y-103828345D01*
X128234356Y-103679124D01*
X128234358Y-103679119D01*
X128289505Y-103512697D01*
X128289506Y-103512690D01*
X128299999Y-103409986D01*
X128300000Y-103409973D01*
X128300000Y-103060000D01*
X127315686Y-103060000D01*
X127320080Y-103055606D01*
X127372741Y-102964394D01*
X127400000Y-102862661D01*
X127400000Y-102757339D01*
X127372741Y-102655606D01*
X127320080Y-102564394D01*
X127315686Y-102560000D01*
X128299999Y-102560000D01*
X128299999Y-102210029D01*
X128299998Y-102210013D01*
X130200000Y-102210013D01*
X130200000Y-102560000D01*
X131184314Y-102560000D01*
X131179920Y-102564394D01*
X131127259Y-102655606D01*
X131100000Y-102757339D01*
X131100000Y-102862661D01*
X131127259Y-102964394D01*
X131179920Y-103055606D01*
X131184314Y-103060000D01*
X130200001Y-103060000D01*
X130200001Y-103409986D01*
X130210494Y-103512697D01*
X130265641Y-103679119D01*
X130265643Y-103679124D01*
X130357684Y-103828345D01*
X130481654Y-103952315D01*
X130630875Y-104044356D01*
X130630880Y-104044358D01*
X130797302Y-104099505D01*
X130797309Y-104099506D01*
X130900019Y-104109999D01*
X131249999Y-104109999D01*
X131250000Y-104109998D01*
X131250000Y-103125686D01*
X131254394Y-103130080D01*
X131345606Y-103182741D01*
X131447339Y-103210000D01*
X131552661Y-103210000D01*
X131654394Y-103182741D01*
X131745606Y-103130080D01*
X131750000Y-103125686D01*
X131750000Y-104109999D01*
X132099972Y-104109999D01*
X132099986Y-104109998D01*
X132202697Y-104099505D01*
X132369119Y-104044358D01*
X132369124Y-104044356D01*
X132518345Y-103952315D01*
X132642315Y-103828345D01*
X132734356Y-103679124D01*
X132734358Y-103679119D01*
X132789505Y-103512697D01*
X132789506Y-103512690D01*
X132799999Y-103409986D01*
X132800000Y-103409973D01*
X132800000Y-103060000D01*
X131815686Y-103060000D01*
X131820080Y-103055606D01*
X131872741Y-102964394D01*
X131900000Y-102862661D01*
X131900000Y-102757339D01*
X131872741Y-102655606D01*
X131820080Y-102564394D01*
X131815686Y-102560000D01*
X132799999Y-102560000D01*
X132799999Y-102210028D01*
X132799998Y-102210013D01*
X132789505Y-102107302D01*
X132734358Y-101940880D01*
X132734356Y-101940875D01*
X132642315Y-101791654D01*
X132518345Y-101667684D01*
X132369124Y-101575643D01*
X132369119Y-101575641D01*
X132202697Y-101520494D01*
X132202690Y-101520493D01*
X132099986Y-101510000D01*
X131750000Y-101510000D01*
X131750000Y-102494314D01*
X131745606Y-102489920D01*
X131654394Y-102437259D01*
X131552661Y-102410000D01*
X131447339Y-102410000D01*
X131345606Y-102437259D01*
X131254394Y-102489920D01*
X131250000Y-102494314D01*
X131250000Y-101510000D01*
X130900028Y-101510000D01*
X130900012Y-101510001D01*
X130797302Y-101520494D01*
X130630880Y-101575641D01*
X130630875Y-101575643D01*
X130481654Y-101667684D01*
X130357684Y-101791654D01*
X130265643Y-101940875D01*
X130265641Y-101940880D01*
X130210494Y-102107302D01*
X130210493Y-102107309D01*
X130200000Y-102210013D01*
X128299998Y-102210013D01*
X128299998Y-102210012D01*
X128289505Y-102107302D01*
X128234358Y-101940880D01*
X128234356Y-101940875D01*
X128142315Y-101791654D01*
X128018345Y-101667684D01*
X127869124Y-101575643D01*
X127869119Y-101575641D01*
X127702697Y-101520494D01*
X127702690Y-101520493D01*
X127599986Y-101510000D01*
X127250000Y-101510000D01*
X127250000Y-102494314D01*
X127245606Y-102489920D01*
X127154394Y-102437259D01*
X127052661Y-102410000D01*
X126947339Y-102410000D01*
X126845606Y-102437259D01*
X126754394Y-102489920D01*
X126750000Y-102494314D01*
X126750000Y-101510000D01*
X126400028Y-101510000D01*
X126400012Y-101510001D01*
X126297302Y-101520494D01*
X126130880Y-101575641D01*
X126130875Y-101575643D01*
X125981654Y-101667684D01*
X125857684Y-101791654D01*
X125765643Y-101940875D01*
X125765641Y-101940880D01*
X125710494Y-102107302D01*
X125710493Y-102107309D01*
X125700000Y-102210013D01*
X123299998Y-102210013D01*
X123299998Y-102210012D01*
X123289505Y-102107302D01*
X123234358Y-101940880D01*
X123234356Y-101940875D01*
X123142315Y-101791654D01*
X123018345Y-101667684D01*
X122869124Y-101575643D01*
X122869119Y-101575641D01*
X122702697Y-101520494D01*
X122702690Y-101520493D01*
X122599986Y-101510000D01*
X122250000Y-101510000D01*
X122250000Y-102494314D01*
X122245606Y-102489920D01*
X122154394Y-102437259D01*
X122052661Y-102410000D01*
X121947339Y-102410000D01*
X121845606Y-102437259D01*
X121754394Y-102489920D01*
X121750000Y-102494314D01*
X121750000Y-101510000D01*
X121400028Y-101510000D01*
X121400012Y-101510001D01*
X121297302Y-101520494D01*
X121130880Y-101575641D01*
X121130875Y-101575643D01*
X120981654Y-101667684D01*
X120857684Y-101791654D01*
X120765643Y-101940875D01*
X120765641Y-101940880D01*
X120710494Y-102107302D01*
X120710493Y-102107309D01*
X120700000Y-102210013D01*
X105500500Y-102210013D01*
X105500500Y-100070000D01*
X107680138Y-100070000D01*
X108483012Y-100070000D01*
X108465795Y-100079940D01*
X108409940Y-100135795D01*
X108370444Y-100204204D01*
X108350000Y-100280504D01*
X108350000Y-100359496D01*
X108370444Y-100435796D01*
X108409940Y-100504205D01*
X108465795Y-100560060D01*
X108483012Y-100570000D01*
X107680138Y-100570000D01*
X107688430Y-100611690D01*
X107688430Y-100611692D01*
X107763807Y-100793671D01*
X107763814Y-100793684D01*
X107873248Y-100957462D01*
X107873251Y-100957466D01*
X108012533Y-101096748D01*
X108012537Y-101096751D01*
X108176315Y-101206185D01*
X108176328Y-101206192D01*
X108358306Y-101281569D01*
X108358318Y-101281572D01*
X108551504Y-101319999D01*
X108551508Y-101320000D01*
X108700000Y-101320000D01*
X108700000Y-100620000D01*
X109200000Y-100620000D01*
X109200000Y-101320000D01*
X109348492Y-101320000D01*
X109348495Y-101319999D01*
X109541681Y-101281572D01*
X109541693Y-101281569D01*
X109723671Y-101206192D01*
X109723684Y-101206185D01*
X109887462Y-101096751D01*
X109887466Y-101096748D01*
X110026748Y-100957466D01*
X110026751Y-100957462D01*
X110136185Y-100793684D01*
X110136192Y-100793671D01*
X110211569Y-100611692D01*
X110211569Y-100611690D01*
X110219862Y-100570000D01*
X109416988Y-100570000D01*
X109434205Y-100560060D01*
X109490060Y-100504205D01*
X109529556Y-100435796D01*
X109550000Y-100359496D01*
X109550000Y-100280504D01*
X109529556Y-100204204D01*
X109490060Y-100135795D01*
X109434205Y-100079940D01*
X109416988Y-100070000D01*
X110219862Y-100070000D01*
X111610138Y-100070000D01*
X112413012Y-100070000D01*
X112395795Y-100079940D01*
X112339940Y-100135795D01*
X112300444Y-100204204D01*
X112280000Y-100280504D01*
X112280000Y-100359496D01*
X112300444Y-100435796D01*
X112339940Y-100504205D01*
X112395795Y-100560060D01*
X112413012Y-100570000D01*
X111610138Y-100570000D01*
X111618430Y-100611690D01*
X111618430Y-100611692D01*
X111693807Y-100793671D01*
X111693814Y-100793684D01*
X111803248Y-100957462D01*
X111803251Y-100957466D01*
X111942533Y-101096748D01*
X111942537Y-101096751D01*
X112106315Y-101206185D01*
X112106328Y-101206192D01*
X112288306Y-101281569D01*
X112288318Y-101281572D01*
X112481504Y-101319999D01*
X112481508Y-101320000D01*
X112880000Y-101320000D01*
X112880000Y-100620000D01*
X113380000Y-100620000D01*
X113380000Y-101320000D01*
X113778492Y-101320000D01*
X113778495Y-101319999D01*
X113971681Y-101281572D01*
X113971693Y-101281569D01*
X114153671Y-101206192D01*
X114153684Y-101206185D01*
X114317462Y-101096751D01*
X114317466Y-101096748D01*
X114456748Y-100957466D01*
X114456751Y-100957462D01*
X114566185Y-100793684D01*
X114566192Y-100793671D01*
X114641569Y-100611692D01*
X114641569Y-100611690D01*
X114649862Y-100570000D01*
X113846988Y-100570000D01*
X113864205Y-100560060D01*
X113920060Y-100504205D01*
X113959556Y-100435796D01*
X113980000Y-100359496D01*
X113980000Y-100280504D01*
X113959556Y-100204204D01*
X113920060Y-100135795D01*
X113864205Y-100079940D01*
X113846988Y-100070000D01*
X114649862Y-100070000D01*
X114641569Y-100028309D01*
X114641569Y-100028307D01*
X114566192Y-99846328D01*
X114566185Y-99846315D01*
X114456751Y-99682537D01*
X114456748Y-99682533D01*
X114317466Y-99543251D01*
X114317462Y-99543248D01*
X114153684Y-99433814D01*
X114153671Y-99433807D01*
X113971693Y-99358430D01*
X113971681Y-99358427D01*
X113778495Y-99320000D01*
X113380000Y-99320000D01*
X113380000Y-100020000D01*
X112880000Y-100020000D01*
X112880000Y-99464463D01*
X112899685Y-99397424D01*
X112942000Y-99357076D01*
X112953365Y-99350515D01*
X113060515Y-99243365D01*
X113061372Y-99241879D01*
X113081721Y-99206637D01*
X113136279Y-99112138D01*
X113136281Y-99112135D01*
X113175500Y-98965766D01*
X113175500Y-98814234D01*
X113136281Y-98667865D01*
X113060515Y-98536635D01*
X112953365Y-98429485D01*
X112887750Y-98391602D01*
X112822136Y-98353719D01*
X112748950Y-98334109D01*
X112675766Y-98314500D01*
X112524234Y-98314500D01*
X112377863Y-98353719D01*
X112246635Y-98429485D01*
X112246632Y-98429487D01*
X112139487Y-98536632D01*
X112139485Y-98536635D01*
X112063719Y-98667863D01*
X112024500Y-98814234D01*
X112024500Y-98965765D01*
X112063719Y-99112136D01*
X112089177Y-99156230D01*
X112139485Y-99243365D01*
X112139487Y-99243367D01*
X112144432Y-99249811D01*
X112141612Y-99251974D01*
X112167302Y-99299020D01*
X112162318Y-99368712D01*
X112120446Y-99424645D01*
X112111379Y-99430416D01*
X112111387Y-99430427D01*
X111942536Y-99543248D01*
X111803251Y-99682533D01*
X111803248Y-99682537D01*
X111693814Y-99846315D01*
X111693807Y-99846328D01*
X111618430Y-100028307D01*
X111618430Y-100028309D01*
X111610138Y-100070000D01*
X110219862Y-100070000D01*
X110211569Y-100028309D01*
X110211569Y-100028307D01*
X110136192Y-99846328D01*
X110136185Y-99846315D01*
X110026751Y-99682537D01*
X110026748Y-99682533D01*
X109887466Y-99543251D01*
X109887462Y-99543248D01*
X109723684Y-99433814D01*
X109723671Y-99433807D01*
X109541693Y-99358430D01*
X109541681Y-99358427D01*
X109348495Y-99320000D01*
X109200000Y-99320000D01*
X109200000Y-100020000D01*
X108700000Y-100020000D01*
X108700000Y-99320000D01*
X108551504Y-99320000D01*
X108358318Y-99358427D01*
X108358306Y-99358430D01*
X108176328Y-99433807D01*
X108176315Y-99433814D01*
X108012537Y-99543248D01*
X108012533Y-99543251D01*
X107873251Y-99682533D01*
X107873248Y-99682537D01*
X107763814Y-99846315D01*
X107763807Y-99846328D01*
X107688430Y-100028307D01*
X107688430Y-100028309D01*
X107680138Y-100070000D01*
X105500500Y-100070000D01*
X105500500Y-91430000D01*
X107680138Y-91430000D01*
X108483012Y-91430000D01*
X108465795Y-91439940D01*
X108409940Y-91495795D01*
X108370444Y-91564204D01*
X108350000Y-91640504D01*
X108350000Y-91719496D01*
X108370444Y-91795796D01*
X108409940Y-91864205D01*
X108465795Y-91920060D01*
X108483012Y-91930000D01*
X107680138Y-91930000D01*
X107688430Y-91971690D01*
X107688430Y-91971692D01*
X107763807Y-92153671D01*
X107763814Y-92153684D01*
X107873248Y-92317462D01*
X107873251Y-92317466D01*
X108012533Y-92456748D01*
X108012537Y-92456751D01*
X108176315Y-92566185D01*
X108176328Y-92566192D01*
X108358306Y-92641569D01*
X108358318Y-92641572D01*
X108551504Y-92679999D01*
X108551508Y-92680000D01*
X108700000Y-92680000D01*
X108700000Y-91980000D01*
X109200000Y-91980000D01*
X109200000Y-92680000D01*
X109348492Y-92680000D01*
X109348495Y-92679999D01*
X109541681Y-92641572D01*
X109541693Y-92641569D01*
X109723671Y-92566192D01*
X109723684Y-92566185D01*
X109887462Y-92456751D01*
X109887466Y-92456748D01*
X110026748Y-92317466D01*
X110026751Y-92317462D01*
X110136185Y-92153684D01*
X110136192Y-92153671D01*
X110211569Y-91971692D01*
X110211569Y-91971690D01*
X110219862Y-91930000D01*
X109416988Y-91930000D01*
X109434205Y-91920060D01*
X109490060Y-91864205D01*
X109529556Y-91795796D01*
X109550000Y-91719496D01*
X109550000Y-91640504D01*
X109529556Y-91564204D01*
X109490060Y-91495795D01*
X109434205Y-91439940D01*
X109416988Y-91430000D01*
X110219862Y-91430000D01*
X111610138Y-91430000D01*
X112413012Y-91430000D01*
X112395795Y-91439940D01*
X112339940Y-91495795D01*
X112300444Y-91564204D01*
X112280000Y-91640504D01*
X112280000Y-91719496D01*
X112300444Y-91795796D01*
X112339940Y-91864205D01*
X112395795Y-91920060D01*
X112413012Y-91930000D01*
X111610138Y-91930000D01*
X111618430Y-91971690D01*
X111618430Y-91971692D01*
X111693807Y-92153671D01*
X111693814Y-92153684D01*
X111803248Y-92317462D01*
X111803251Y-92317466D01*
X111942533Y-92456748D01*
X111942537Y-92456751D01*
X112111387Y-92569574D01*
X112110430Y-92571005D01*
X112154425Y-92614211D01*
X112169895Y-92682346D01*
X112146072Y-92748029D01*
X112144309Y-92750094D01*
X112144432Y-92750189D01*
X112139485Y-92756635D01*
X112063719Y-92887863D01*
X112035874Y-92991786D01*
X112024500Y-93034234D01*
X112024500Y-93185766D01*
X112037289Y-93233497D01*
X112063719Y-93332136D01*
X112090321Y-93378211D01*
X112139485Y-93463365D01*
X112246635Y-93570515D01*
X112377865Y-93646281D01*
X112524234Y-93685500D01*
X112524236Y-93685500D01*
X112675764Y-93685500D01*
X112675766Y-93685500D01*
X112822135Y-93646281D01*
X112953365Y-93570515D01*
X113032819Y-93491061D01*
X113094142Y-93457576D01*
X113163834Y-93462560D01*
X113219767Y-93504432D01*
X113244184Y-93569896D01*
X113244500Y-93578742D01*
X113244500Y-93628846D01*
X113275261Y-93783489D01*
X113275264Y-93783501D01*
X113335602Y-93929172D01*
X113335609Y-93929185D01*
X113423210Y-94060288D01*
X113423213Y-94060292D01*
X113534707Y-94171786D01*
X113534711Y-94171789D01*
X113665814Y-94259390D01*
X113665827Y-94259397D01*
X113744984Y-94292184D01*
X113811503Y-94319737D01*
X113878580Y-94333079D01*
X113940490Y-94365463D01*
X113942069Y-94367015D01*
X114313181Y-94738127D01*
X114346666Y-94799450D01*
X114349500Y-94825808D01*
X114349500Y-97064069D01*
X114349500Y-97064071D01*
X114349499Y-97064071D01*
X114374355Y-97189021D01*
X114374359Y-97189061D01*
X114374363Y-97189061D01*
X114374498Y-97189743D01*
X114423533Y-97308125D01*
X114494726Y-97414673D01*
X114494727Y-97414674D01*
X115182984Y-98102930D01*
X115216469Y-98164253D01*
X115216920Y-98166420D01*
X115230261Y-98233489D01*
X115230264Y-98233501D01*
X115290602Y-98379172D01*
X115290609Y-98379185D01*
X115378210Y-98510288D01*
X115378213Y-98510292D01*
X115489707Y-98621786D01*
X115489711Y-98621789D01*
X115620814Y-98709390D01*
X115620827Y-98709397D01*
X115766498Y-98769735D01*
X115766503Y-98769737D01*
X115876199Y-98791557D01*
X115921153Y-98800499D01*
X115921156Y-98800500D01*
X115921158Y-98800500D01*
X116078844Y-98800500D01*
X116078845Y-98800499D01*
X116233497Y-98769737D01*
X116379179Y-98709394D01*
X116510289Y-98621789D01*
X116621789Y-98510289D01*
X116709394Y-98379179D01*
X116769737Y-98233497D01*
X116800500Y-98078842D01*
X116800500Y-97921158D01*
X116800500Y-97921155D01*
X116776140Y-97798692D01*
X116782367Y-97729100D01*
X116825230Y-97673923D01*
X116891120Y-97650678D01*
X116897757Y-97650500D01*
X125254071Y-97650500D01*
X125338615Y-97633682D01*
X125379744Y-97625501D01*
X125498127Y-97576465D01*
X125604669Y-97505277D01*
X126612808Y-96497136D01*
X126674131Y-96463652D01*
X126719887Y-96462345D01*
X126897648Y-96490500D01*
X126897649Y-96490500D01*
X127102351Y-96490500D01*
X127102352Y-96490500D01*
X127304534Y-96458477D01*
X127499219Y-96395220D01*
X127681610Y-96302287D01*
X127798129Y-96217632D01*
X127847213Y-96181971D01*
X127847215Y-96181968D01*
X127847219Y-96181966D01*
X127991966Y-96037219D01*
X127991968Y-96037215D01*
X127991971Y-96037213D01*
X128093505Y-95897461D01*
X128112287Y-95871610D01*
X128205220Y-95689219D01*
X128268477Y-95494534D01*
X128300500Y-95292352D01*
X128300500Y-95087648D01*
X128268477Y-94885465D01*
X128225269Y-94752487D01*
X128205220Y-94690781D01*
X128205218Y-94690778D01*
X128205218Y-94690776D01*
X128123833Y-94531051D01*
X128112287Y-94508390D01*
X128097753Y-94488385D01*
X127991971Y-94342786D01*
X127847213Y-94198028D01*
X127681613Y-94077715D01*
X127681612Y-94077714D01*
X127681610Y-94077713D01*
X127624653Y-94048691D01*
X127499223Y-93984781D01*
X127304534Y-93921522D01*
X127168931Y-93900045D01*
X127149532Y-93896972D01*
X127086398Y-93867044D01*
X127049467Y-93807732D01*
X127050465Y-93737870D01*
X127089075Y-93679637D01*
X127153038Y-93651523D01*
X127168931Y-93650500D01*
X127339071Y-93650500D01*
X127423615Y-93633682D01*
X127464744Y-93625501D01*
X127583127Y-93576465D01*
X127589051Y-93572506D01*
X127592034Y-93570514D01*
X127606089Y-93561122D01*
X127689669Y-93505277D01*
X128102932Y-93092012D01*
X128164251Y-93058530D01*
X128166316Y-93058099D01*
X128233497Y-93044737D01*
X128379179Y-92984394D01*
X128436044Y-92946397D01*
X128502721Y-92925520D01*
X128504935Y-92925500D01*
X130379192Y-92925500D01*
X130446231Y-92945185D01*
X130466873Y-92961819D01*
X131226816Y-93721762D01*
X131260301Y-93783085D01*
X131255317Y-93852777D01*
X131213445Y-93908710D01*
X131177454Y-93927374D01*
X131000777Y-93984781D01*
X130818386Y-94077715D01*
X130652786Y-94198028D01*
X130508028Y-94342786D01*
X130387715Y-94508386D01*
X130294781Y-94690776D01*
X130231522Y-94885465D01*
X130199500Y-95087648D01*
X130199500Y-95292351D01*
X130231522Y-95494534D01*
X130294781Y-95689223D01*
X130358691Y-95814653D01*
X130377571Y-95851706D01*
X130387715Y-95871613D01*
X130508028Y-96037213D01*
X130652786Y-96181971D01*
X130773950Y-96270000D01*
X130818390Y-96302287D01*
X130911051Y-96349500D01*
X131000776Y-96395218D01*
X131000778Y-96395218D01*
X131000781Y-96395220D01*
X131063523Y-96415606D01*
X131195465Y-96458477D01*
X131248475Y-96466873D01*
X131397648Y-96490500D01*
X131397649Y-96490500D01*
X131602351Y-96490500D01*
X131602352Y-96490500D01*
X131804534Y-96458477D01*
X131999219Y-96395220D01*
X132181610Y-96302287D01*
X132298129Y-96217632D01*
X132347213Y-96181971D01*
X132347215Y-96181968D01*
X132347219Y-96181966D01*
X132491966Y-96037219D01*
X132491968Y-96037215D01*
X132491971Y-96037213D01*
X132593505Y-95897461D01*
X132612287Y-95871610D01*
X132705220Y-95689219D01*
X132762625Y-95512545D01*
X132802063Y-95454870D01*
X132866422Y-95427672D01*
X132935268Y-95439587D01*
X132968237Y-95463183D01*
X134732984Y-97227930D01*
X134766469Y-97289253D01*
X134766920Y-97291420D01*
X134780261Y-97358489D01*
X134780264Y-97358501D01*
X134840602Y-97504172D01*
X134840609Y-97504185D01*
X134928210Y-97635288D01*
X134928213Y-97635292D01*
X135039707Y-97746786D01*
X135039711Y-97746789D01*
X135170814Y-97834390D01*
X135170827Y-97834397D01*
X135316498Y-97894735D01*
X135316503Y-97894737D01*
X135471153Y-97925499D01*
X135471156Y-97925500D01*
X135471158Y-97925500D01*
X135628844Y-97925500D01*
X135628845Y-97925499D01*
X135783497Y-97894737D01*
X135929179Y-97834394D01*
X136060289Y-97746789D01*
X136171789Y-97635289D01*
X136259394Y-97504179D01*
X136265389Y-97489707D01*
X136311571Y-97378211D01*
X136319737Y-97358497D01*
X136350500Y-97203842D01*
X136350500Y-97046158D01*
X136350500Y-97046155D01*
X136350499Y-97046153D01*
X136319738Y-96891510D01*
X136319737Y-96891503D01*
X136319735Y-96891498D01*
X136259397Y-96745827D01*
X136259390Y-96745814D01*
X136171789Y-96614711D01*
X136171786Y-96614707D01*
X136060292Y-96503213D01*
X136060288Y-96503210D01*
X135929185Y-96415609D01*
X135929172Y-96415602D01*
X135783501Y-96355264D01*
X135783489Y-96355261D01*
X135716420Y-96341920D01*
X135654509Y-96309535D01*
X135652930Y-96307984D01*
X131717694Y-92372747D01*
X131636100Y-92291153D01*
X139249500Y-92291153D01*
X139249500Y-92448846D01*
X139280261Y-92603489D01*
X139280264Y-92603501D01*
X139340602Y-92749172D01*
X139340609Y-92749185D01*
X139428210Y-92880288D01*
X139428213Y-92880292D01*
X139539707Y-92991786D01*
X139539711Y-92991789D01*
X139670814Y-93079390D01*
X139670827Y-93079397D01*
X139791856Y-93129528D01*
X139816503Y-93139737D01*
X139953442Y-93166976D01*
X139971153Y-93170499D01*
X139971156Y-93170500D01*
X139971158Y-93170500D01*
X140128843Y-93170500D01*
X140149296Y-93166431D01*
X140224334Y-93151505D01*
X140293924Y-93157732D01*
X140336206Y-93185441D01*
X141165425Y-94014660D01*
X141198910Y-94075983D01*
X141199361Y-94078149D01*
X141230261Y-94233491D01*
X141230264Y-94233501D01*
X141290602Y-94379172D01*
X141290609Y-94379185D01*
X141378210Y-94510288D01*
X141378213Y-94510292D01*
X141489707Y-94621786D01*
X141489711Y-94621789D01*
X141620814Y-94709390D01*
X141620827Y-94709397D01*
X141724857Y-94752487D01*
X141779261Y-94796327D01*
X141801326Y-94862621D01*
X141799023Y-94891238D01*
X141789500Y-94939116D01*
X141789500Y-95096804D01*
X141820261Y-95251447D01*
X141820264Y-95251459D01*
X141880602Y-95397130D01*
X141880606Y-95397137D01*
X141918602Y-95454002D01*
X141939480Y-95520679D01*
X141939500Y-95522893D01*
X141939500Y-99089191D01*
X141919815Y-99156230D01*
X141903181Y-99176872D01*
X140897068Y-100182984D01*
X140835745Y-100216469D01*
X140833579Y-100216920D01*
X140766508Y-100230261D01*
X140766498Y-100230264D01*
X140620827Y-100290602D01*
X140620814Y-100290609D01*
X140489711Y-100378210D01*
X140489707Y-100378213D01*
X140378213Y-100489707D01*
X140378210Y-100489711D01*
X140290609Y-100620814D01*
X140290602Y-100620827D01*
X140230264Y-100766498D01*
X140230261Y-100766510D01*
X140199500Y-100921153D01*
X140199500Y-101078846D01*
X140230261Y-101233489D01*
X140230264Y-101233501D01*
X140290602Y-101379172D01*
X140290609Y-101379185D01*
X140378210Y-101510288D01*
X140378213Y-101510292D01*
X140489707Y-101621786D01*
X140489711Y-101621789D01*
X140620814Y-101709390D01*
X140620827Y-101709397D01*
X140766498Y-101769735D01*
X140766503Y-101769737D01*
X140921153Y-101800499D01*
X140921156Y-101800500D01*
X140921158Y-101800500D01*
X141078844Y-101800500D01*
X141078845Y-101800499D01*
X141233497Y-101769737D01*
X141379179Y-101709394D01*
X141510289Y-101621789D01*
X141621789Y-101510289D01*
X141709394Y-101379179D01*
X141769737Y-101233497D01*
X141783079Y-101166416D01*
X141815463Y-101104509D01*
X141816958Y-101102986D01*
X143095277Y-99824669D01*
X143166466Y-99718126D01*
X143215501Y-99599743D01*
X143240500Y-99474069D01*
X143240500Y-99345931D01*
X143240500Y-97459808D01*
X143260185Y-97392769D01*
X143312989Y-97347014D01*
X143382147Y-97337070D01*
X143445703Y-97366095D01*
X143452181Y-97372127D01*
X144182984Y-98102930D01*
X144216469Y-98164253D01*
X144216920Y-98166420D01*
X144230261Y-98233489D01*
X144230264Y-98233501D01*
X144290602Y-98379172D01*
X144290609Y-98379185D01*
X144378210Y-98510288D01*
X144378213Y-98510292D01*
X144489707Y-98621786D01*
X144489711Y-98621789D01*
X144620814Y-98709390D01*
X144620827Y-98709397D01*
X144766498Y-98769735D01*
X144766503Y-98769737D01*
X144876199Y-98791557D01*
X144921153Y-98800499D01*
X144921156Y-98800500D01*
X144921158Y-98800500D01*
X145078844Y-98800500D01*
X145078845Y-98800499D01*
X145233497Y-98769737D01*
X145379179Y-98709394D01*
X145510289Y-98621789D01*
X145621789Y-98510289D01*
X145709394Y-98379179D01*
X145769737Y-98233497D01*
X145800500Y-98078842D01*
X145800500Y-97921158D01*
X145800500Y-97921155D01*
X145800499Y-97921153D01*
X145795245Y-97894738D01*
X145769737Y-97766503D01*
X145754244Y-97729100D01*
X145709397Y-97620827D01*
X145709390Y-97620814D01*
X145621789Y-97489711D01*
X145621786Y-97489707D01*
X145510292Y-97378213D01*
X145510288Y-97378210D01*
X145379185Y-97290609D01*
X145379172Y-97290602D01*
X145233501Y-97230264D01*
X145233489Y-97230261D01*
X145166420Y-97216920D01*
X145104509Y-97184535D01*
X145102930Y-97182984D01*
X144386819Y-96466873D01*
X144353334Y-96405550D01*
X144350500Y-96379192D01*
X144350500Y-93917847D01*
X144370185Y-93850808D01*
X144422989Y-93805053D01*
X144450309Y-93796230D01*
X144470835Y-93792147D01*
X144583497Y-93769737D01*
X144729179Y-93709394D01*
X144860289Y-93621789D01*
X144971789Y-93510289D01*
X145059394Y-93379179D01*
X145119737Y-93233497D01*
X145121595Y-93224152D01*
X145124350Y-93210308D01*
X145156736Y-93148397D01*
X145217452Y-93113823D01*
X145245967Y-93110500D01*
X149855382Y-93110500D01*
X149922421Y-93130185D01*
X149956099Y-93164591D01*
X149957085Y-93163875D01*
X150084890Y-93339786D01*
X150235213Y-93490109D01*
X150407182Y-93615050D01*
X150415946Y-93619516D01*
X150466742Y-93667491D01*
X150483536Y-93735312D01*
X150460998Y-93801447D01*
X150415946Y-93840484D01*
X150407182Y-93844949D01*
X150235213Y-93969890D01*
X150084890Y-94120213D01*
X149959951Y-94292179D01*
X149863444Y-94481585D01*
X149797753Y-94683760D01*
X149764500Y-94893713D01*
X149764500Y-95106286D01*
X149798516Y-95321055D01*
X149796877Y-95321314D01*
X149793738Y-95383883D01*
X149764342Y-95430710D01*
X147881873Y-97313181D01*
X147820550Y-97346666D01*
X147794192Y-97349500D01*
X147504935Y-97349500D01*
X147437896Y-97329815D01*
X147436090Y-97328633D01*
X147379179Y-97290606D01*
X147379172Y-97290602D01*
X147233501Y-97230264D01*
X147233489Y-97230261D01*
X147078845Y-97199500D01*
X147078842Y-97199500D01*
X146921158Y-97199500D01*
X146921155Y-97199500D01*
X146766510Y-97230261D01*
X146766498Y-97230264D01*
X146620827Y-97290602D01*
X146620814Y-97290609D01*
X146489711Y-97378210D01*
X146489707Y-97378213D01*
X146378213Y-97489707D01*
X146378210Y-97489711D01*
X146290609Y-97620814D01*
X146290602Y-97620827D01*
X146230264Y-97766498D01*
X146230261Y-97766510D01*
X146199500Y-97921153D01*
X146199500Y-98078846D01*
X146230261Y-98233489D01*
X146230264Y-98233501D01*
X146290602Y-98379172D01*
X146290609Y-98379185D01*
X146378210Y-98510288D01*
X146378213Y-98510292D01*
X146489707Y-98621786D01*
X146489711Y-98621789D01*
X146620814Y-98709390D01*
X146620827Y-98709397D01*
X146766498Y-98769735D01*
X146766503Y-98769737D01*
X146876199Y-98791557D01*
X146921153Y-98800499D01*
X146921156Y-98800500D01*
X146921158Y-98800500D01*
X147078844Y-98800500D01*
X147078845Y-98800499D01*
X147233497Y-98769737D01*
X147379179Y-98709394D01*
X147436044Y-98671397D01*
X147502721Y-98650520D01*
X147504935Y-98650500D01*
X148179071Y-98650500D01*
X148263615Y-98633682D01*
X148304744Y-98625501D01*
X148423127Y-98576465D01*
X148426287Y-98574353D01*
X148432648Y-98570104D01*
X148522169Y-98510288D01*
X148529669Y-98505277D01*
X149552819Y-97482125D01*
X149614142Y-97448641D01*
X149683833Y-97453625D01*
X149739767Y-97495496D01*
X149764184Y-97560961D01*
X149764500Y-97569807D01*
X149764500Y-97646287D01*
X149768877Y-97673923D01*
X149794292Y-97834390D01*
X149797754Y-97856243D01*
X149818846Y-97921158D01*
X149863444Y-98058414D01*
X149959951Y-98247820D01*
X150084890Y-98419786D01*
X150235213Y-98570109D01*
X150407182Y-98695050D01*
X150415946Y-98699516D01*
X150466742Y-98747491D01*
X150483536Y-98815312D01*
X150460998Y-98881447D01*
X150415946Y-98920484D01*
X150407182Y-98924949D01*
X150235213Y-99049890D01*
X150084890Y-99200213D01*
X149959951Y-99372179D01*
X149863444Y-99561585D01*
X149797753Y-99763760D01*
X149784678Y-99846315D01*
X149764500Y-99973713D01*
X149764500Y-100186287D01*
X149797754Y-100396243D01*
X149854211Y-100570000D01*
X149863444Y-100598414D01*
X149959951Y-100787820D01*
X150084890Y-100959786D01*
X150235213Y-101110109D01*
X150407179Y-101235048D01*
X150407181Y-101235049D01*
X150407184Y-101235051D01*
X150596588Y-101331557D01*
X150798757Y-101397246D01*
X151008713Y-101430500D01*
X151008714Y-101430500D01*
X151221286Y-101430500D01*
X151221287Y-101430500D01*
X151431243Y-101397246D01*
X151633412Y-101331557D01*
X151822816Y-101235051D01*
X151862547Y-101206185D01*
X151994786Y-101110109D01*
X151994788Y-101110106D01*
X151994792Y-101110104D01*
X152145104Y-100959792D01*
X152145106Y-100959788D01*
X152145109Y-100959786D01*
X152270048Y-100787820D01*
X152270047Y-100787820D01*
X152270051Y-100787816D01*
X152366557Y-100598412D01*
X152432246Y-100396243D01*
X152465500Y-100186287D01*
X152465500Y-99973713D01*
X152432246Y-99763757D01*
X152366557Y-99561588D01*
X152270051Y-99372184D01*
X152270049Y-99372181D01*
X152270048Y-99372179D01*
X152145109Y-99200213D01*
X151994786Y-99049890D01*
X151822820Y-98924951D01*
X151822115Y-98924591D01*
X151814054Y-98920485D01*
X151763259Y-98872512D01*
X151746463Y-98804692D01*
X151768999Y-98738556D01*
X151814054Y-98699515D01*
X151822816Y-98695051D01*
X151918544Y-98625501D01*
X151994786Y-98570109D01*
X151994792Y-98570104D01*
X152059624Y-98505272D01*
X152145104Y-98419792D01*
X152145106Y-98419788D01*
X152145109Y-98419786D01*
X152270048Y-98247820D01*
X152270047Y-98247820D01*
X152270051Y-98247816D01*
X152366557Y-98058412D01*
X152432246Y-97856243D01*
X152465500Y-97646287D01*
X152465500Y-97433713D01*
X152432246Y-97223757D01*
X152366557Y-97021588D01*
X152270051Y-96832184D01*
X152270049Y-96832181D01*
X152270048Y-96832179D01*
X152145109Y-96660213D01*
X151994786Y-96509890D01*
X151822820Y-96384951D01*
X151822115Y-96384591D01*
X151814054Y-96380485D01*
X151763259Y-96332512D01*
X151746463Y-96264692D01*
X151768999Y-96198556D01*
X151814054Y-96159515D01*
X151822816Y-96155051D01*
X151895502Y-96102242D01*
X151994786Y-96030109D01*
X151994788Y-96030106D01*
X151994792Y-96030104D01*
X152145104Y-95879792D01*
X152145106Y-95879788D01*
X152145109Y-95879786D01*
X152270048Y-95707820D01*
X152270047Y-95707820D01*
X152270051Y-95707816D01*
X152366557Y-95518412D01*
X152432246Y-95316243D01*
X152465500Y-95106287D01*
X152465500Y-94893713D01*
X152432246Y-94683757D01*
X152366557Y-94481588D01*
X152270051Y-94292184D01*
X152270049Y-94292181D01*
X152270048Y-94292179D01*
X152145109Y-94120213D01*
X151994786Y-93969890D01*
X151822820Y-93844951D01*
X151822115Y-93844591D01*
X151814054Y-93840485D01*
X151763259Y-93792512D01*
X151746463Y-93724692D01*
X151768999Y-93658556D01*
X151814054Y-93619515D01*
X151822816Y-93615051D01*
X151844789Y-93599086D01*
X151994786Y-93490109D01*
X151994788Y-93490106D01*
X151994792Y-93490104D01*
X152145104Y-93339792D01*
X152145106Y-93339788D01*
X152145109Y-93339786D01*
X152270048Y-93167820D01*
X152270047Y-93167820D01*
X152270051Y-93167816D01*
X152366557Y-92978412D01*
X152432246Y-92776243D01*
X152465500Y-92566287D01*
X152465500Y-92353713D01*
X152432246Y-92143757D01*
X152366557Y-91941588D01*
X152270051Y-91752184D01*
X152270049Y-91752181D01*
X152270048Y-91752179D01*
X152145109Y-91580213D01*
X152031181Y-91466285D01*
X151997696Y-91404962D01*
X152002680Y-91335270D01*
X152044552Y-91279337D01*
X152075529Y-91262422D01*
X152207086Y-91213354D01*
X152207093Y-91213350D01*
X152322187Y-91127190D01*
X152322190Y-91127187D01*
X152408350Y-91012093D01*
X152408354Y-91012086D01*
X152458596Y-90877379D01*
X152458598Y-90877372D01*
X152464999Y-90817844D01*
X152465000Y-90817827D01*
X152465000Y-90170000D01*
X151548012Y-90170000D01*
X151580925Y-90112993D01*
X151615000Y-89985826D01*
X151615000Y-89854174D01*
X151580925Y-89727007D01*
X151548012Y-89670000D01*
X152465000Y-89670000D01*
X152465000Y-89022172D01*
X152464999Y-89022155D01*
X152458598Y-88962627D01*
X152458596Y-88962620D01*
X152408354Y-88827913D01*
X152408350Y-88827906D01*
X152322190Y-88712812D01*
X152322187Y-88712809D01*
X152207093Y-88626649D01*
X152207086Y-88626645D01*
X152072379Y-88576403D01*
X152072372Y-88576401D01*
X152012844Y-88570000D01*
X151365000Y-88570000D01*
X151365000Y-89486988D01*
X151307993Y-89454075D01*
X151180826Y-89420000D01*
X151049174Y-89420000D01*
X150922007Y-89454075D01*
X150865000Y-89486988D01*
X150865000Y-88570000D01*
X150217155Y-88570000D01*
X150157627Y-88576401D01*
X150157620Y-88576403D01*
X150022913Y-88626645D01*
X150022906Y-88626649D01*
X149907812Y-88712809D01*
X149907809Y-88712812D01*
X149821649Y-88827906D01*
X149821645Y-88827913D01*
X149771403Y-88962620D01*
X149771401Y-88962627D01*
X149765000Y-89022155D01*
X149765000Y-89670000D01*
X150681988Y-89670000D01*
X150649075Y-89727007D01*
X150615000Y-89854174D01*
X150615000Y-89985826D01*
X150649075Y-90112993D01*
X150681988Y-90170000D01*
X149765000Y-90170000D01*
X149765000Y-90817844D01*
X149771401Y-90877372D01*
X149771403Y-90877379D01*
X149821645Y-91012086D01*
X149821649Y-91012093D01*
X149907809Y-91127187D01*
X149907812Y-91127190D01*
X150022906Y-91213350D01*
X150022913Y-91213354D01*
X150154470Y-91262422D01*
X150210404Y-91304293D01*
X150234821Y-91369758D01*
X150219969Y-91438031D01*
X150198819Y-91466285D01*
X150084889Y-91580215D01*
X149957085Y-91756125D01*
X149955740Y-91755148D01*
X149909295Y-91797166D01*
X149855382Y-91809500D01*
X144825929Y-91809500D01*
X144700261Y-91834497D01*
X144700255Y-91834499D01*
X144581874Y-91883534D01*
X144488965Y-91945613D01*
X144422287Y-91966490D01*
X144354907Y-91948005D01*
X144308217Y-91896025D01*
X144305531Y-91890003D01*
X144276465Y-91819831D01*
X144276464Y-91819829D01*
X144276463Y-91819827D01*
X144258896Y-91793536D01*
X144205275Y-91713286D01*
X144205272Y-91713283D01*
X143407014Y-90915026D01*
X143373529Y-90853703D01*
X143373105Y-90851672D01*
X143359737Y-90784461D01*
X143316468Y-90680000D01*
X143299397Y-90638785D01*
X143299390Y-90638772D01*
X143211789Y-90507669D01*
X143211786Y-90507665D01*
X143100292Y-90396171D01*
X143100288Y-90396168D01*
X142969185Y-90308567D01*
X142969172Y-90308560D01*
X142823501Y-90248222D01*
X142823489Y-90248219D01*
X142668845Y-90217458D01*
X142668842Y-90217458D01*
X142511158Y-90217458D01*
X142511155Y-90217458D01*
X142356510Y-90248219D01*
X142356498Y-90248222D01*
X142210827Y-90308560D01*
X142210814Y-90308567D01*
X142079711Y-90396168D01*
X142079707Y-90396171D01*
X141968213Y-90507665D01*
X141968210Y-90507669D01*
X141880609Y-90638772D01*
X141880602Y-90638785D01*
X141820264Y-90784456D01*
X141820261Y-90784468D01*
X141789500Y-90939111D01*
X141789500Y-91096804D01*
X141820261Y-91251447D01*
X141820264Y-91251459D01*
X141880602Y-91397130D01*
X141880609Y-91397143D01*
X141968210Y-91528246D01*
X141968213Y-91528250D01*
X142079707Y-91639744D01*
X142079711Y-91639747D01*
X142210814Y-91727348D01*
X142210827Y-91727355D01*
X142298230Y-91763557D01*
X142356503Y-91787695D01*
X142423580Y-91801037D01*
X142485490Y-91833421D01*
X142487069Y-91834973D01*
X143013181Y-92361085D01*
X143046666Y-92422408D01*
X143049500Y-92448766D01*
X143049500Y-94156255D01*
X143029815Y-94223294D01*
X142977011Y-94269049D01*
X142907853Y-94278993D01*
X142878047Y-94270816D01*
X142865139Y-94265469D01*
X142810737Y-94221628D01*
X142788673Y-94155334D01*
X142790977Y-94126717D01*
X142800500Y-94078844D01*
X142800500Y-93921155D01*
X142800499Y-93921153D01*
X142775650Y-93796230D01*
X142769737Y-93766503D01*
X142757877Y-93737870D01*
X142709397Y-93620827D01*
X142709390Y-93620814D01*
X142621789Y-93489711D01*
X142621786Y-93489707D01*
X142510292Y-93378213D01*
X142510288Y-93378210D01*
X142379185Y-93290609D01*
X142379172Y-93290602D01*
X142233501Y-93230264D01*
X142233491Y-93230261D01*
X142078149Y-93199361D01*
X142016238Y-93166976D01*
X142014660Y-93165425D01*
X140857590Y-92008355D01*
X140857588Y-92008352D01*
X140738717Y-91889481D01*
X140738712Y-91889477D01*
X140664937Y-91846883D01*
X140639256Y-91827177D01*
X140560292Y-91748213D01*
X140560288Y-91748210D01*
X140429185Y-91660609D01*
X140429172Y-91660602D01*
X140283501Y-91600264D01*
X140283489Y-91600261D01*
X140128845Y-91569500D01*
X140128842Y-91569500D01*
X139971158Y-91569500D01*
X139971155Y-91569500D01*
X139816510Y-91600261D01*
X139816498Y-91600264D01*
X139670827Y-91660602D01*
X139670814Y-91660609D01*
X139539711Y-91748210D01*
X139539707Y-91748213D01*
X139428213Y-91859707D01*
X139428210Y-91859711D01*
X139340609Y-91990814D01*
X139340602Y-91990827D01*
X139280264Y-92136498D01*
X139280261Y-92136510D01*
X139249500Y-92291153D01*
X131636100Y-92291153D01*
X131114673Y-91769726D01*
X131114669Y-91769723D01*
X131008127Y-91698535D01*
X130889744Y-91649499D01*
X130889738Y-91649497D01*
X130764071Y-91624500D01*
X130764069Y-91624500D01*
X128504935Y-91624500D01*
X128437896Y-91604815D01*
X128436090Y-91603633D01*
X128379179Y-91565606D01*
X128379172Y-91565602D01*
X128233501Y-91505264D01*
X128233489Y-91505261D01*
X128078845Y-91474500D01*
X128078842Y-91474500D01*
X127921158Y-91474500D01*
X127921155Y-91474500D01*
X127766510Y-91505261D01*
X127766498Y-91505264D01*
X127620827Y-91565602D01*
X127620814Y-91565609D01*
X127489711Y-91653210D01*
X127489707Y-91653213D01*
X127378213Y-91764707D01*
X127378210Y-91764711D01*
X127290609Y-91895814D01*
X127290602Y-91895827D01*
X127230264Y-92041498D01*
X127230261Y-92041508D01*
X127216920Y-92108579D01*
X127184535Y-92170490D01*
X127182985Y-92172068D01*
X127041871Y-92313182D01*
X126980551Y-92346666D01*
X126954192Y-92349500D01*
X126320808Y-92349500D01*
X126253769Y-92329815D01*
X126233127Y-92313181D01*
X125689674Y-91769727D01*
X125689673Y-91769726D01*
X125689669Y-91769723D01*
X125583127Y-91698535D01*
X125583125Y-91698534D01*
X125558941Y-91688516D01*
X125518716Y-91661637D01*
X125510292Y-91653213D01*
X125510288Y-91653210D01*
X125379185Y-91565609D01*
X125379172Y-91565602D01*
X125233501Y-91505264D01*
X125233489Y-91505261D01*
X125078845Y-91474500D01*
X125078842Y-91474500D01*
X124921158Y-91474500D01*
X124921155Y-91474500D01*
X124766510Y-91505261D01*
X124766498Y-91505264D01*
X124620827Y-91565602D01*
X124620814Y-91565609D01*
X124489711Y-91653210D01*
X124489707Y-91653213D01*
X124378213Y-91764707D01*
X124378210Y-91764711D01*
X124290609Y-91895814D01*
X124290604Y-91895824D01*
X124240911Y-92015793D01*
X124214031Y-92056021D01*
X122387190Y-93882862D01*
X122325867Y-93916347D01*
X122280111Y-93917654D01*
X122127461Y-93893477D01*
X122102352Y-93889500D01*
X121897648Y-93889500D01*
X121873329Y-93893351D01*
X121695465Y-93921522D01*
X121500776Y-93984781D01*
X121318386Y-94077715D01*
X121152786Y-94198028D01*
X121008034Y-94342780D01*
X120981585Y-94379185D01*
X120902246Y-94488386D01*
X120846918Y-94531051D01*
X120801929Y-94539500D01*
X116005808Y-94539500D01*
X115938769Y-94519815D01*
X115918127Y-94503181D01*
X114862015Y-93447069D01*
X114828530Y-93385746D01*
X114828093Y-93383652D01*
X114814737Y-93316503D01*
X114779016Y-93230264D01*
X114754397Y-93170827D01*
X114754390Y-93170814D01*
X114666789Y-93039711D01*
X114666786Y-93039707D01*
X114555292Y-92928213D01*
X114555288Y-92928210D01*
X114424185Y-92840609D01*
X114424172Y-92840602D01*
X114278501Y-92780264D01*
X114278492Y-92780261D01*
X114229033Y-92770423D01*
X114167122Y-92738037D01*
X114132549Y-92677321D01*
X114136290Y-92607551D01*
X114177157Y-92550880D01*
X114184336Y-92545704D01*
X114317458Y-92456754D01*
X114317466Y-92456748D01*
X114456748Y-92317466D01*
X114456751Y-92317462D01*
X114566185Y-92153684D01*
X114566192Y-92153671D01*
X114641569Y-91971692D01*
X114641569Y-91971690D01*
X114649862Y-91930000D01*
X113846988Y-91930000D01*
X113864205Y-91920060D01*
X113920060Y-91864205D01*
X113959556Y-91795796D01*
X113980000Y-91719496D01*
X113980000Y-91640504D01*
X113959556Y-91564204D01*
X113920060Y-91495795D01*
X113864205Y-91439940D01*
X113846988Y-91430000D01*
X114649862Y-91430000D01*
X114641569Y-91388309D01*
X114641569Y-91388307D01*
X114566192Y-91206328D01*
X114566185Y-91206315D01*
X114456751Y-91042537D01*
X114456748Y-91042533D01*
X114317466Y-90903251D01*
X114317462Y-90903248D01*
X114153684Y-90793814D01*
X114153671Y-90793807D01*
X113971693Y-90718430D01*
X113971681Y-90718427D01*
X113778495Y-90680000D01*
X113380000Y-90680000D01*
X113380000Y-91380000D01*
X112880000Y-91380000D01*
X112880000Y-90680000D01*
X112481504Y-90680000D01*
X112288318Y-90718427D01*
X112288306Y-90718430D01*
X112106328Y-90793807D01*
X112106315Y-90793814D01*
X111942537Y-90903248D01*
X111942533Y-90903251D01*
X111803251Y-91042533D01*
X111803248Y-91042537D01*
X111693814Y-91206315D01*
X111693807Y-91206328D01*
X111618430Y-91388307D01*
X111618430Y-91388309D01*
X111610138Y-91430000D01*
X110219862Y-91430000D01*
X110211569Y-91388309D01*
X110211569Y-91388307D01*
X110136192Y-91206328D01*
X110136185Y-91206315D01*
X110026751Y-91042537D01*
X110026748Y-91042533D01*
X109887466Y-90903251D01*
X109887462Y-90903248D01*
X109723684Y-90793814D01*
X109723671Y-90793807D01*
X109541693Y-90718430D01*
X109541681Y-90718427D01*
X109348495Y-90680000D01*
X109200000Y-90680000D01*
X109200000Y-91380000D01*
X108700000Y-91380000D01*
X108700000Y-90680000D01*
X108551504Y-90680000D01*
X108358318Y-90718427D01*
X108358306Y-90718430D01*
X108176328Y-90793807D01*
X108176315Y-90793814D01*
X108012537Y-90903248D01*
X108012533Y-90903251D01*
X107873251Y-91042533D01*
X107873248Y-91042537D01*
X107763814Y-91206315D01*
X107763807Y-91206328D01*
X107688430Y-91388307D01*
X107688430Y-91388309D01*
X107680138Y-91430000D01*
X105500500Y-91430000D01*
X105500500Y-87624500D01*
X105520185Y-87557461D01*
X105572989Y-87511706D01*
X105624500Y-87500500D01*
X155375500Y-87500500D01*
X155442539Y-87520185D01*
G37*
%TD.AperFunction*%
%TD*%
M02*
