M48
; DRILL file KiCad 10.0.5 date 2026-09-21T22:39:28
; FORMAT={-:-/ absolute / metric / decimal}
; #@! TF.CreationDate,2026-09-21T22:39:28+05:30
; #@! TF.GenerationSoftware,Kicad,Pcbnew,10.0.5
; #@! TF.FileFunction,MixedPlating,1,2
FMAT,2
METRIC
; #@! TA.AperFunction,Plated,PTH,ViaDrill
T1C0.300
; #@! TA.AperFunction,Plated,PTH,ComponentDrill
T2C0.600
; #@! TA.AperFunction,Plated,PTH,ComponentDrill
T3C0.800
; #@! TA.AperFunction,Plated,PTH,ComponentDrill
T4C1.000
; #@! TA.AperFunction,NonPlated,NPTH,ComponentDrill
T5C0.650
%
G90
G05
T1
X111.0Y-98.0
X114.045Y-93.55
X116.0Y-97.0
X116.0Y-98.0
X125.0Y-92.275
X128.0Y-92.275
X134.0Y-92.0
X135.55Y-97.125
X138.0Y-95.5
X140.05Y-92.37
X141.0Y-101.0
X142.0Y-94.0
X142.59Y-91.018
X142.59Y-95.018
X144.35Y-93.0
X145.0Y-98.0
X147.0Y-98.0
T3
X122.0Y-95.19
X122.0Y-102.81
X127.0Y-95.19
X127.0Y-102.81
X131.5Y-95.19
X131.5Y-102.81
T4
X151.115Y-89.92
X151.115Y-92.46
X151.115Y-95.0
X151.115Y-97.54
X151.115Y-100.08
T5
X112.6Y-93.11
X112.6Y-98.89
T2
G00X109.25Y-91.68
M15
G01X108.65Y-91.68
M16
G05
G00X109.25Y-100.32
M15
G01X108.65Y-100.32
M16
G05
G00X113.68Y-91.68
M15
G01X112.58Y-91.68
M16
G05
G00X113.68Y-100.32
M15
G01X112.58Y-100.32
M16
G05
M30
