%TF.GenerationSoftware,KiCad,Pcbnew,10.0.5*%
%TF.CreationDate,2026-09-21T22:39:23+05:30*%
%TF.ProjectId,USB-UART Converter,5553422d-5541-4525-9420-436f6e766572,rev?*%
%TF.SameCoordinates,Original*%
%TF.FileFunction,Paste,Top*%
%TF.FilePolarity,Positive*%
%FSLAX46Y46*%
G04 Gerber Fmt 4.6, Leading zero omitted, Abs format (unit mm)*
G04 Created by KiCad (PCBNEW 10.0.5) date 2026-09-21 22:39:23*
%MOMM*%
%LPD*%
G01*
G04 APERTURE LIST*
G04 Aperture macros list*
%AMRoundRect*
0 Rectangle with rounded corners*
0 $1 Rounding radius*
0 $2 $3 $4 $5 $6 $7 $8 $9 X,Y pos of 4 corners*
0 Add a 4 corners polygon primitive as box body*
4,1,4,$2,$3,$4,$5,$6,$7,$8,$9,$2,$3,0*
0 Add four circle primitives for the rounded corners*
1,1,$1+$1,$2,$3*
1,1,$1+$1,$4,$5*
1,1,$1+$1,$6,$7*
1,1,$1+$1,$8,$9*
0 Add four rect primitives between the rounded corners*
20,1,$1+$1,$2,$3,$4,$5,0*
20,1,$1+$1,$4,$5,$6,$7,0*
20,1,$1+$1,$6,$7,$8,$9,0*
20,1,$1+$1,$8,$9,$2,$3,0*%
G04 Aperture macros list end*
%ADD10RoundRect,0.225000X0.250000X-0.225000X0.250000X0.225000X-0.250000X0.225000X-0.250000X-0.225000X0*%
%ADD11RoundRect,0.150000X-0.575000X0.150000X-0.575000X-0.150000X0.575000X-0.150000X0.575000X0.150000X0*%
%ADD12RoundRect,0.075000X-0.650000X0.075000X-0.650000X-0.075000X0.650000X-0.075000X0.650000X0.075000X0*%
%ADD13RoundRect,0.225000X-0.225000X-0.250000X0.225000X-0.250000X0.225000X0.250000X-0.225000X0.250000X0*%
%ADD14RoundRect,0.079500X-0.079500X-0.100500X0.079500X-0.100500X0.079500X0.100500X-0.079500X0.100500X0*%
%ADD15RoundRect,0.079500X0.100500X-0.079500X0.100500X0.079500X-0.100500X0.079500X-0.100500X-0.079500X0*%
%ADD16RoundRect,0.225000X-0.225000X-0.225000X0.225000X-0.225000X0.225000X0.225000X-0.225000X0.225000X0*%
%ADD17RoundRect,0.062500X-0.337500X-0.062500X0.337500X-0.062500X0.337500X0.062500X-0.337500X0.062500X0*%
%ADD18RoundRect,0.062500X-0.062500X-0.337500X0.062500X-0.337500X0.062500X0.337500X-0.062500X0.337500X0*%
G04 APERTURE END LIST*
D10*
%TO.C,C2*%
X136000000Y-89775000D03*
X136000000Y-88225000D03*
%TD*%
%TO.C,C4*%
X125000000Y-92275000D03*
X125000000Y-90725000D03*
%TD*%
D11*
%TO.C,J1*%
X114045000Y-92750000D03*
X114045000Y-93550000D03*
D12*
X114045000Y-94750000D03*
X114045000Y-95750000D03*
X114045000Y-96250000D03*
X114045000Y-97250000D03*
D11*
X114045000Y-98450000D03*
X114045000Y-99250000D03*
X114045000Y-99250000D03*
X114045000Y-98450000D03*
D12*
X114045000Y-97750000D03*
X114045000Y-96750000D03*
X114045000Y-95250000D03*
X114045000Y-94250000D03*
D11*
X114045000Y-93550000D03*
X114045000Y-92750000D03*
%TD*%
D13*
%TO.C,C1*%
X123730000Y-106005000D03*
X125280000Y-106005000D03*
%TD*%
D14*
%TO.C,R6*%
X142655000Y-93000000D03*
X143345000Y-93000000D03*
%TD*%
D15*
%TO.C,R2*%
X122000000Y-91345000D03*
X122000000Y-90655000D03*
%TD*%
D14*
%TO.C,R4*%
X142975000Y-99000000D03*
X143665000Y-99000000D03*
%TD*%
%TO.C,R5*%
X142655000Y-101000000D03*
X143345000Y-101000000D03*
%TD*%
%TO.C,R7*%
X142975000Y-97000000D03*
X143665000Y-97000000D03*
%TD*%
%TO.C,R3*%
X135655000Y-100000000D03*
X136345000Y-100000000D03*
%TD*%
D16*
%TO.C,U1*%
X136880000Y-94380000D03*
X136880000Y-95500000D03*
X136880000Y-96620000D03*
X138000000Y-94380000D03*
X138000000Y-95500000D03*
X138000000Y-96620000D03*
X139120000Y-94380000D03*
X139120000Y-95500000D03*
X139120000Y-96620000D03*
D17*
X135550000Y-94000000D03*
X135550000Y-94500000D03*
X135550000Y-95000000D03*
X135550000Y-95500000D03*
X135550000Y-96000000D03*
X135550000Y-96500000D03*
X135550000Y-97000000D03*
D18*
X136500000Y-97950000D03*
X137000000Y-97950000D03*
X137500000Y-97950000D03*
X138000000Y-97950000D03*
X138500000Y-97950000D03*
X139000000Y-97950000D03*
X139500000Y-97950000D03*
D17*
X140450000Y-97000000D03*
X140450000Y-96500000D03*
X140450000Y-96000000D03*
X140450000Y-95500000D03*
X140450000Y-95000000D03*
X140450000Y-94500000D03*
X140450000Y-94000000D03*
D18*
X139500000Y-93050000D03*
X139000000Y-93050000D03*
X138500000Y-93050000D03*
X138000000Y-93050000D03*
X137500000Y-93050000D03*
X137000000Y-93050000D03*
X136500000Y-93050000D03*
%TD*%
D15*
%TO.C,R1*%
X119000000Y-91665000D03*
X119000000Y-90975000D03*
%TD*%
D10*
%TO.C,C3*%
X128000000Y-92275000D03*
X128000000Y-90725000D03*
%TD*%
D14*
%TO.C,D1*%
X142655000Y-91000000D03*
X143345000Y-91000000D03*
%TD*%
%TO.C,D2*%
X142655000Y-95000000D03*
X143345000Y-95000000D03*
%TD*%
M02*
