%TF.GenerationSoftware,KiCad,Pcbnew,10.0.5*%
%TF.CreationDate,2026-09-21T22:39:23+05:30*%
%TF.ProjectId,USB-UART Converter,5553422d-5541-4525-9420-436f6e766572,rev?*%
%TF.SameCoordinates,Original*%
%TF.FileFunction,Soldermask,Top*%
%TF.FilePolarity,Negative*%
%FSLAX46Y46*%
G04 Gerber Fmt 4.6, Leading zero omitted, Abs format (unit mm)*
G04 Created by KiCad (PCBNEW 10.0.5) date 2026-09-21 22:39:23*
%MOMM*%
%LPD*%
G01*
G04 APERTURE LIST*
G04 Aperture macros list*
%AMRoundRect*
0 Rectangle with rounded corners*
0 $1 Rounding radius*
0 $2 $3 $4 $5 $6 $7 $8 $9 X,Y pos of 4 corners*
0 Add a 4 corners polygon primitive as box body*
4,1,4,$2,$3,$4,$5,$6,$7,$8,$9,$2,$3,0*
0 Add four circle primitives for the rounded corners*
1,1,$1+$1,$2,$3*
1,1,$1+$1,$4,$5*
1,1,$1+$1,$6,$7*
1,1,$1+$1,$8,$9*
0 Add four rect primitives between the rounded corners*
20,1,$1+$1,$2,$3,$4,$5,0*
20,1,$1+$1,$4,$5,$6,$7,0*
20,1,$1+$1,$6,$7,$8,$9,0*
20,1,$1+$1,$8,$9,$2,$3,0*%
G04 Aperture macros list end*
%ADD10RoundRect,0.225000X0.250000X-0.225000X0.250000X0.225000X-0.250000X0.225000X-0.250000X-0.225000X0*%
%ADD11R,1.700000X1.700000*%
%ADD12C,1.700000*%
%ADD13C,0.650000*%
%ADD14RoundRect,0.150000X-0.575000X0.150000X-0.575000X-0.150000X0.575000X-0.150000X0.575000X0.150000X0*%
%ADD15RoundRect,0.075000X-0.650000X0.075000X-0.650000X-0.075000X0.650000X-0.075000X0.650000X0.075000X0*%
%ADD16O,2.100000X1.000000*%
%ADD17O,1.600000X1.000000*%
%ADD18RoundRect,0.225000X-0.225000X-0.250000X0.225000X-0.250000X0.225000X0.250000X-0.225000X0.250000X0*%
%ADD19RoundRect,0.100000X-0.130000X-0.100000X0.130000X-0.100000X0.130000X0.100000X-0.130000X0.100000X0*%
%ADD20RoundRect,0.100000X0.100000X-0.130000X0.100000X0.130000X-0.100000X0.130000X-0.100000X-0.130000X0*%
%ADD21RoundRect,0.062500X-0.337500X-0.062500X0.337500X-0.062500X0.337500X0.062500X-0.337500X0.062500X0*%
%ADD22RoundRect,0.062500X-0.062500X-0.337500X0.062500X-0.337500X0.062500X0.337500X-0.062500X0.337500X0*%
%ADD23R,3.350000X3.350000*%
%ADD24RoundRect,0.250000X0.550000X-0.550000X0.550000X0.550000X-0.550000X0.550000X-0.550000X-0.550000X0*%
%ADD25C,1.600000*%
G04 APERTURE END LIST*
D10*
%TO.C,C2*%
X136000000Y-89775000D03*
X136000000Y-88225000D03*
%TD*%
D11*
%TO.C,J2*%
X151115000Y-89920000D03*
D12*
X151115000Y-92460000D03*
X151115000Y-95000000D03*
X151115000Y-97540000D03*
X151115000Y-100080000D03*
%TD*%
D10*
%TO.C,C4*%
X125000000Y-92275000D03*
X125000000Y-90725000D03*
%TD*%
D13*
%TO.C,J1*%
X112600000Y-93110000D03*
X112600000Y-98890000D03*
D14*
X114045000Y-92750000D03*
X114045000Y-93550000D03*
D15*
X114045000Y-94750000D03*
X114045000Y-95750000D03*
X114045000Y-96250000D03*
X114045000Y-97250000D03*
D14*
X114045000Y-98450000D03*
X114045000Y-99250000D03*
X114045000Y-99250000D03*
X114045000Y-98450000D03*
D15*
X114045000Y-97750000D03*
X114045000Y-96750000D03*
X114045000Y-95250000D03*
X114045000Y-94250000D03*
D14*
X114045000Y-93550000D03*
X114045000Y-92750000D03*
D16*
X113130000Y-91680000D03*
D17*
X108950000Y-91680000D03*
D16*
X113130000Y-100320000D03*
D17*
X108950000Y-100320000D03*
%TD*%
D18*
%TO.C,C1*%
X123730000Y-106005000D03*
X125280000Y-106005000D03*
%TD*%
D19*
%TO.C,R6*%
X142680000Y-93000000D03*
X143320000Y-93000000D03*
%TD*%
D20*
%TO.C,R2*%
X122000000Y-91320000D03*
X122000000Y-90680000D03*
%TD*%
D19*
%TO.C,R4*%
X143000000Y-99000000D03*
X143640000Y-99000000D03*
%TD*%
%TO.C,R5*%
X142680000Y-101000000D03*
X143320000Y-101000000D03*
%TD*%
%TO.C,R7*%
X143000000Y-97000000D03*
X143640000Y-97000000D03*
%TD*%
%TO.C,R3*%
X135680000Y-100000000D03*
X136320000Y-100000000D03*
%TD*%
D21*
%TO.C,U1*%
X135550000Y-94000000D03*
X135550000Y-94500000D03*
X135550000Y-95000000D03*
X135550000Y-95500000D03*
X135550000Y-96000000D03*
X135550000Y-96500000D03*
X135550000Y-97000000D03*
D22*
X136500000Y-97950000D03*
X137000000Y-97950000D03*
X137500000Y-97950000D03*
X138000000Y-97950000D03*
X138500000Y-97950000D03*
X139000000Y-97950000D03*
X139500000Y-97950000D03*
D21*
X140450000Y-97000000D03*
X140450000Y-96500000D03*
X140450000Y-96000000D03*
X140450000Y-95500000D03*
X140450000Y-95000000D03*
X140450000Y-94500000D03*
X140450000Y-94000000D03*
D22*
X139500000Y-93050000D03*
X139000000Y-93050000D03*
X138500000Y-93050000D03*
X138000000Y-93050000D03*
X137500000Y-93050000D03*
X137000000Y-93050000D03*
X136500000Y-93050000D03*
D23*
X138000000Y-95500000D03*
%TD*%
D20*
%TO.C,R1*%
X119000000Y-91640000D03*
X119000000Y-91000000D03*
%TD*%
D24*
%TO.C,D8*%
X122000000Y-102810000D03*
D25*
X122000000Y-95190000D03*
%TD*%
D24*
%TO.C,D7*%
X131500000Y-102810000D03*
D25*
X131500000Y-95190000D03*
%TD*%
D24*
%TO.C,D6*%
X127000000Y-102810000D03*
D25*
X127000000Y-95190000D03*
%TD*%
D10*
%TO.C,C3*%
X128000000Y-92275000D03*
X128000000Y-90725000D03*
%TD*%
D19*
%TO.C,D1*%
X142680000Y-91000000D03*
X143320000Y-91000000D03*
%TD*%
%TO.C,D2*%
X142680000Y-95000000D03*
X143320000Y-95000000D03*
%TD*%
M02*
